HIERARCHY
ROOT Hips
{
	OFFSET 0.000000 0.000000 0.000000
	CHANNELS 6 Xposition Yposition Zposition Zrotation Yrotation Xrotation 
	JOINT LHipJoint
	{
		OFFSET 0.000000 0.000000 0.000000
		CHANNELS 3 Zrotation Yrotation Xrotation
		JOINT LeftUpLeg
		{
			OFFSET 1.363060 -1.794630 0.839290
			CHANNELS 3 Zrotation Yrotation Xrotation
			JOINT LeftLeg
			{
				OFFSET 2.448110 -6.726130 0.000000
				CHANNELS 3 Zrotation Yrotation Xrotation
				JOINT LeftFoot
				{
					OFFSET 2.562200 -7.039590 0.000000
					CHANNELS 3 Zrotation Yrotation Xrotation
					JOINT LeftToeBase
					{
						OFFSET 0.157640 -0.433110 2.322550
						CHANNELS 3 Zrotation Yrotation Xrotation
						End Site
						{
							OFFSET 0.000000 0.000000 0.000000
						}
					}
				}
			}
		}
	}
	JOINT RHipJoint
	{
		OFFSET 0.000000 0.000000 0.000000
		CHANNELS 3 Zrotation Yrotation Xrotation
		JOINT RightUpLeg
		{
			OFFSET -1.305520 -1.794630 0.839290
			CHANNELS 3 Zrotation Yrotation Xrotation
			JOINT RightLeg
			{
				OFFSET -2.542530 -6.985550 0.000000
				CHANNELS 3 Zrotation Yrotation Xrotation
				JOINT RightFoot
				{
					OFFSET -2.568260 -7.056230 0.000000
					CHANNELS 3 Zrotation Yrotation Xrotation
					JOINT RightToeBase
					{
						OFFSET -0.164730 -0.452590 2.363150
						CHANNELS 3 Zrotation Yrotation Xrotation
						End Site
						{
							OFFSET 0.000000 0.000000 0.000000
						}
					}
				}
			}
		}
	}
	JOINT LowerBack
	{
		OFFSET 0.000000 0.000000 0.000000
		CHANNELS 3 Zrotation Yrotation Xrotation
		JOINT Spine
		{
			OFFSET 0.028270 2.035590 -0.193380
			CHANNELS 3 Zrotation Yrotation Xrotation
			JOINT Spine1
			{
				OFFSET 0.056720 2.048850 -0.042750
				CHANNELS 3 Zrotation Yrotation Xrotation
				JOINT Neck
				{
					OFFSET 0.000000 0.000000 0.000000
					CHANNELS 3 Zrotation Yrotation Xrotation
					JOINT Neck1
					{
						OFFSET -0.054170 1.746240 0.172020
						CHANNELS 3 Zrotation Yrotation Xrotation
						JOINT Head
						{
							OFFSET 0.104070 1.761360 -0.123970
							CHANNELS 3 Zrotation Yrotation Xrotation
							End Site
							{
								OFFSET 0.000000 0.000000 0.000000
							}
						}
					}
				}
				JOINT LeftShoulder
				{
					OFFSET 0.000000 0.000000 0.000000
					CHANNELS 3 Zrotation Yrotation Xrotation
					JOINT LeftArm
					{
						OFFSET 3.362410 1.200890 -0.311210
						CHANNELS 3 Zrotation Yrotation Xrotation
						JOINT LeftForeArm
						{
							OFFSET 4.983000 -0.000000 -0.000000
							CHANNELS 3 Zrotation Yrotation Xrotation
							JOINT LeftHand
							{
								OFFSET 3.483560 -0.000000 -0.000000
								CHANNELS 3 Zrotation Yrotation Xrotation
								JOINT LeftFingerBase
								{
									OFFSET 0.000000 0.000000 0.000000
									CHANNELS 3 Zrotation Yrotation Xrotation
									JOINT LeftHandIndex1
									{
										OFFSET 0.715260 -0.000000 -0.000000
										CHANNELS 3 Zrotation Yrotation Xrotation
										End Site
										{
											OFFSET 0.000000 0.000000 0.000000
										}
									}
								}
								JOINT LThumb
								{
									OFFSET 0.000000 0.000000 0.000000
									CHANNELS 3 Zrotation Yrotation Xrotation
									End Site
									{
										OFFSET 0.000000 0.000000 0.000000
									}
								}
							}
						}
					}
				}
				JOINT RightShoulder
				{
					OFFSET 0.000000 0.000000 0.000000
					CHANNELS 3 Zrotation Yrotation Xrotation
					JOINT RightArm
					{
						OFFSET -3.136600 1.374050 -0.404650
						CHANNELS 3 Zrotation Yrotation Xrotation
						JOINT RightForeArm
						{
							OFFSET -5.241900 -0.000000 -0.000000
							CHANNELS 3 Zrotation Yrotation Xrotation
							JOINT RightHand
							{
								OFFSET -3.444170 -0.000000 -0.000000
								CHANNELS 3 Zrotation Yrotation Xrotation
								JOINT RightFingerBase
								{
									OFFSET 0.000000 0.000000 0.000000
									CHANNELS 3 Zrotation Yrotation Xrotation
									JOINT RightHandIndex1
									{
										OFFSET -0.622530 -0.000000 -0.000000
										CHANNELS 3 Zrotation Yrotation Xrotation
										End Site
										{
											OFFSET 0.000000 0.000000 0.000000
										}
									}
								}
								JOINT RThumb
								{
									OFFSET 0.000000 0.000000 0.000000
									CHANNELS 3 Zrotation Yrotation Xrotation
									End Site
									{
										OFFSET 0.000000 0.000000 0.000000
									}
								}
							}
						}
					}
				}
			}
		}
	}
}
MOTION
Frames: 8
Frame Time: 0.008333
-19.537479 15.312188 -2.514086 154.782425 84.725504 -175.570286 -12.047347 3.634040 -1.502692 -0.398628 9.755961 2.856308 -1.709489 -0.077267 9.203788 0.518295 3.940606 1.564396 0.565500 0.000000 -86.451100 8.559759 2.196938 3.956029 -0.443955 3.239831 -77.849133 0.327018 -4.537621 51.242391 -1.524517 -4.769057 -4.535752 -0.946800 0.000000 -43.014300 10.405034 -5.036949 -0.629423 0.949567 -5.796874 -2.822119 -9.300883 -5.895023 1.146319 11.028433 -7.573617 -7.272150 -4.657104 -0.339929 -0.106687 0.000000 0.000000 0.000000 1.179100 -1.178785 4.579992 -14.550647 -27.190417 11.394664 -0.436745 -82.637959 0.079133 -12.171531 -2.944863 0.361092 0.124926 0.402831 0.000000 0.000000 0.000000 0.000000 0.000000 0.000000 0.000000 22.508645 -7.944618 2.238476 63.735651 -8.248116 -5.806072 3.085074 28.890050 0.018258 -0.218416 14.696180 -0.036505 0.069094 -0.115465 -0.000000 0.000000 0.000000 0.000000 0.000000 0.000000 0.000000 
-19.263882 15.318817 -2.487107 159.782958 84.963441 -170.250016 -12.159389 3.832963 -1.302390 0.293628 9.476675 2.126456 -1.499846 0.164621 10.587177 0.600639 4.477684 4.333367 0.817299 0.000000 -88.349900 8.537934 2.265995 3.880059 0.173559 3.699517 -77.700849 0.217056 -4.576927 52.620282 -1.652280 -5.308779 -5.018332 -0.953100 0.000001 -42.787100 11.274141 -4.883573 -0.854315 1.115145 -5.705978 -2.890450 -9.333767 -5.810595 1.108732 10.926287 -7.240815 -7.294184 -4.708148 -0.343413 -0.114907 0.000000 0.000000 0.000000 1.071112 -0.972568 4.628699 -14.753770 -26.070309 11.570755 -0.439617 -82.947677 0.078603 -12.233205 -3.003851 0.368511 0.118632 0.397219 0.000000 0.000000 0.000000 0.000000 0.000000 0.000000 0.000000 22.552664 -7.516440 2.280016 63.214175 -7.655744 -6.091764 3.126209 28.405065 0.018617 -0.252167 14.704807 -0.041099 0.070693 -0.115746 -0.000000 0.000000 0.000000 0.000000 0.000000 0.000000 0.000000 
-18.991257 15.332630 -2.458544 164.340247 85.248345 -165.375250 -12.315944 4.013280 -1.107969 0.881832 9.180843 1.238301 -1.278042 0.400522 12.220395 0.726173 5.108884 7.163257 1.111900 -0.000000 -89.208201 8.474487 2.327615 3.788309 0.839862 4.151317 -77.427831 0.140983 -4.583127 53.784867 -1.768140 -5.760545 -5.712745 -0.916500 -0.000000 -42.763400 12.022649 -4.716651 -1.039320 1.253613 -5.594678 -2.950037 -9.363724 -5.704847 1.067785 10.844654 -6.855038 -7.303769 -4.761793 -0.347004 -0.120988 0.000000 0.000000 0.000000 0.978816 -0.748264 4.680639 -15.037720 -24.921233 11.882435 -0.448185 -83.161008 0.077685 -12.287511 -3.062944 0.375635 0.111319 0.389692 0.000000 0.000000 0.000000 0.000000 0.000000 0.000000 0.000000 22.631503 -7.027293 2.320788 62.680497 -6.978706 -6.283093 3.167149 27.873328 0.018960 -0.260459 14.730327 -0.042394 0.071950 -0.116128 -0.000000 0.000000 0.000000 0.000000 0.000000 0.000000 0.000000 
-18.720297 15.353712 -2.428049 168.331702 85.554226 -161.077080 -12.502082 4.154355 -0.920423 1.341318 8.850506 0.196195 -1.050744 0.616915 14.127652 0.890687 5.825365 9.943480 1.455000 -0.000000 -88.795900 8.378189 2.365841 3.685018 1.529465 4.564685 -77.024256 0.099535 -4.563570 54.729916 -1.869545 -6.106499 -6.597334 -0.834500 -0.000000 -42.924700 12.632030 -4.548201 -1.186687 1.362436 -5.473441 -3.000572 -9.389661 -5.588213 1.024343 10.787289 -6.416259 -7.294427 -4.818242 -0.350787 -0.122855 0.000000 0.000000 0.000000 0.913061 -0.524658 4.736107 -15.398607 -23.750102 12.331868 -0.463075 -83.262967 0.076372 -12.336210 -3.117931 0.381766 0.103132 0.380163 0.000000 0.000000 0.000000 0.000000 0.000000 0.000000 0.000000 22.752053 -6.485892 2.358996 62.138815 -6.221945 -6.384046 3.207671 27.292070 0.019284 -0.236356 14.773173 -0.039489 0.072803 -0.116579 -0.000000 0.000000 0.000000 0.000000 0.000000 0.000000 0.000000 
-18.452135 15.382047 -2.395311 171.663703 85.862307 -157.457504 -12.694439 4.242100 -0.742740 1.655421 8.479166 -0.996240 -0.829074 0.804655 16.326957 1.084179 6.613279 12.542159 1.846900 -0.000000 -86.963100 8.265992 2.371949 3.575412 2.218585 4.915883 -76.485339 0.092221 -4.525534 55.451486 -1.954397 -6.334605 -7.634273 -0.710600 0.000000 -43.234300 13.097156 -4.386401 -1.300322 1.441142 -5.349806 -3.043200 -9.411386 -5.468353 0.976525 10.755768 -5.923355 -7.256731 -4.877877 -0.354892 -0.117493 0.000000 0.000000 0.000000 0.888770 -0.336046 4.794937 -15.848609 -22.535299 12.916244 -0.484373 -83.252243 0.074664 -12.384384 -3.163339 0.386803 0.094288 0.368505 0.000000 0.000000 0.000000 0.000000 0.000000 0.000000 0.000000 22.917783 -5.898400 2.394723 61.594272 -5.394271 -6.405299 3.247823 26.660791 0.019595 -0.172392 14.831749 -0.031285 0.073218 -0.117094 -0.000000 0.000000 0.000000 0.000000 0.000000 0.000000 0.000000 
-18.187489 15.417680 -2.360355 174.323869 86.165425 -154.535101 -12.871488 4.271801 -0.580529 1.820114 8.079722 -2.339966 -0.626738 0.962049 18.826568 1.292264 7.451569 14.822116 2.278001 0.000000 -83.703200 8.155125 2.345163 3.464607 2.889421 5.194886 -75.807337 0.117204 -4.473549 55.945359 -2.021608 -6.442763 -8.772873 -0.554000 0.000000 -43.646400 13.425340 -4.233874 -1.383194 1.491258 -5.226529 -3.078321 -9.429054 -5.348029 0.925394 10.749510 -5.380237 -7.186722 -4.940106 -0.359316 -0.103487 0.000000 0.000000 0.000000 0.905743 -0.191277 4.856298 -16.375365 -21.289629 13.629716 -0.512993 -83.117866 0.072574 -12.434049 -3.197188 0.390244 0.084976 0.354798 0.000000 0.000000 0.000000 0.000000 0.000000 0.000000 0.000000 23.127408 -5.273156 2.427520 61.050550 -4.496899 -6.355003 3.287978 25.979491 0.019903 -0.063350 14.904032 -0.017082 0.073214 -0.117692 -0.000000 0.000000 0.000000 0.000000 0.000000 0.000000 0.000000 
-17.926656 15.460595 -2.323338 176.347834 86.463814 -152.277360 -13.018118 4.246616 -0.441518 1.839980 7.678579 -3.837918 -0.455603 1.094806 21.616457 1.499532 8.319357 16.666205 2.730800 0.000000 -79.202700 8.058774 2.289092 3.357201 3.528080 5.402556 -74.989041 0.171287 -4.409482 56.207983 -2.071006 -6.438045 -9.955131 -0.378200 0.000001 -44.112400 13.629441 -4.089204 -1.436206 1.515198 -5.102661 -3.103559 -9.443470 -5.225841 0.880520 10.767811 -4.793804 -7.091303 -5.003308 -0.363851 -0.082736 0.000000 0.000000 0.000000 0.933131 -0.033681 4.919773 -16.908777 -20.125729 14.472929 -0.552002 -82.817954 0.070136 -12.474230 -3.224298 0.392594 0.075063 0.339524 0.000000 0.000000 0.000000 0.000000 0.000000 0.000000 0.000000 23.379063 -4.618728 2.452953 60.509250 -3.523511 -6.244632 3.328210 25.255697 0.020211 0.099054 14.982718 0.004419 0.072773 -0.118378 -0.000000 0.000000 0.000000 0.000000 0.000000 0.000000 0.000000 
-17.670138 15.510698 -2.284737 177.852163 86.762076 -150.571624 -13.129706 4.176089 -0.332518 1.730035 7.310646 -5.490683 -0.321687 1.214152 24.666854 1.692930 9.196555 17.995940 3.181300 -0.000000 -73.830400 7.982320 2.207956 3.258042 4.127904 5.551070 -74.029371 0.249989 -4.332224 56.237834 -2.103990 -6.338430 -11.122391 -0.198100 0.000000 -44.586800 13.723092 -3.949179 -1.462359 1.515852 -4.975548 -3.123885 -9.452308 -5.100303 0.829014 10.801107 -4.168004 -6.954841 -5.066760 -0.368632 -0.050365 0.000000 0.000000 0.000000 1.008037 0.035761 4.982046 -17.538276 -18.890605 15.417502 -0.598748 -82.408718 0.067369 -12.529328 -3.236411 0.393543 0.065253 0.322345 0.000000 0.000000 0.000000 0.000000 0.000000 0.000000 0.000000 23.653251 -3.939302 2.479950 59.978444 -2.484251 -6.077145 3.369587 24.486295 0.020550 0.312535 15.067303 0.033020 0.072016 -0.119258 -0.000000 0.000000 0.000000 0.000000 0.000000 0.000000 0.000000 
